# xmcd
#
# Track frame offsets:
#        150
#        13650
#        25630
#        35627
#        48627
#        61265
#        72572
#        87262
#        99437
#        111300
#        123000
#        135850
#        147592
#        160830
#        172702
#        185212
#        196382
#        205947
#        216622
#        229077
#        241405
#        254295
#        267512
#        279815
#        292735
#        302540
#        315165
#        325795
#        338392
#
# Disc length: 4674 seconds
#
# Revision: 0
# Processed by: cddbd v1.5.1PL2 Copyright (c) Steve Scherf et al.
# Submitted via: ExactAudioCopy v0.95b3
#
DISCID=9912401d
DTITLE=Various Artist - Free Soul. The Classic Of 60's Motown 2
DYEAR=2004
DGENRE=Soul
TTITLE0=Smokey Robinson and The Miracles - The Tracks Of My Tears
TTITLE1=Stevie Wonder - Hey Love
TTITLE2=Marvin Gaye and Tammi Terrell - Ain't Nothing Like The Real Thin
TTITLE2=g
TTITLE3=Brenda Holloway - You've Made Me So Very Happy
TTITLE4=Stevie Wonder - My Cherie Amour
TTITLE5=Smokey Robinson and The Miracles - Choosey Beggar
TTITLE6=The Temptations - All I Need
TTITLE7=The Four Tops - I Can't Help Myself (Sugar Pie, Honey Bunch)
TTITLE8=Martha Reeves and The Vandellas - Dancing In The Street
TTITLE9=The Four Tops - Standing In The Shadows Of Love
TTITLE10=Diana Ross and The Supremes - Stop! In The Name Of Love
TTITLE11=Martha Reeves and The Vandellas - I Can't Dance To That Music Y
TTITLE11=ou're Playin'
TTITLE12=The Jackson 5 - I Want You Back
TTITLE13=Smokey Robinson and The Miracles - I Second That Emotion
TTITLE14=The Temptations - Since I Lost My Baby
TTITLE15=Junior Walker and The All Stars - What Does It Take (To Win You
TTITLE15=r Love)
TTITLE16=Brenda Holloway - When I'm Gone
TTITLE17=Carolyn Crawford - Until You Came Along
TTITLE18=Mary Wells - My Guy
TTITLE19=Patrice Holloway - The Touch Of Venus
TTITLE20=Martha Reeves and The Vandellas - Jimmy Mack
TTITLE21=Kim Weston - Take Me In Your Arms
TTITLE22=Martha Reeves and The Vandellas - (Love Is Like A) Heat Wave
TTITLE23=Brenda Holloway - Just Look What You've Done
TTITLE24=Marvin Gaye - Wherever I Lay My Hat (That's My Home)
TTITLE25=Smokey Robinson and The Miracles - Going To A Go-Go
TTITLE26=Diana Ross and The Supremes - Some Things You Never Get Used To
TTITLE27=Marvin Gaye and Tammi Terrell - You're All I Need To Get By
TTITLE28=Smokey Robinson and The Miracles - Ooo Baby Baby
EXTD=
EXTT0=
EXTT1=
EXTT2=
EXTT3=
EXTT4=
EXTT5=
EXTT6=
EXTT7=
EXTT8=
EXTT9=
EXTT10=
EXTT11=
EXTT12=
EXTT13=
EXTT14=
EXTT15=
EXTT16=
EXTT17=
EXTT18=
EXTT19=
EXTT20=
EXTT21=
EXTT22=
EXTT23=
EXTT24=
EXTT25=
EXTT26=
EXTT27=
EXTT28=
PLAYORDER=
